<mxfile host="app.diagrams.net">
  <diagram name="Container Diagram" id="1">
    <mxGraphModel dx="1294" dy="627" grid="1" gridSize="10" guides="1" tooltips="1" connect="1" arrows="1" fold="1" page="1" pageScale="1" pageWidth="827" pageHeight="1169">
      <root>
        <mxCell id="0"/>
        <mxCell id="1" parent="0"/>
        <mxCell id="user" value="Users" style="shape=rectangle;whiteSpace=wrap;rounded=1;" vertex="1" parent="1">
          <mxGeometry x="320" y="20" width="120" height="40" as="geometry"/>
        </mxCell>
        <mxCell id="gateway" value="API Gateway
(Auth & Routing)" style="shape=rectangle;whiteSpace=wrap;rounded=1;" vertex="1" parent="1">
          <mxGeometry x="320" y="80" width="160" height="60" as="geometry"/>
        </mxCell>
        <mxCell id="oauth" value="OAuth2 (Google)" style="shape=rectangle;whiteSpace=wrap;rounded=1;" vertex="1" parent="1">
          <mxGeometry x="120" y="80" width="120" height="40" as="geometry"/>
        </mxCell>
        <mxCell id="cms" value="CMS Service
- Users
- Courses" style="shape=rectangle;whiteSpace=wrap;rounded=1;" vertex="1" parent="1">
          <mxGeometry x="160" y="160" width="160" height="80" as="geometry"/>
        </mxCell>
        <mxCell id="content" value="Content Service
- Video Streaming
- File Uploading" style="shape=rectangle;whiteSpace=wrap;rounded=1;" vertex="1" parent="1">
          <mxGeometry x="400" y="160" width="200" height="80" as="geometry"/>
        </mxCell>
        <mxCell id="cmsdb" value="PostgreSQL
(CMS DB)" style="shape=rectangle;whiteSpace=wrap;rounded=1;" vertex="1" parent="1">
          <mxGeometry x="160" y="260" width="140" height="50" as="geometry"/>
        </mxCell>
        <mxCell id="redis" value="Redis Cache" style="shape=rectangle;whiteSpace=wrap;rounded=1;" vertex="1" parent="1">
          <mxGeometry x="400" y="260" width="120" height="50" as="geometry"/>
        </mxCell>
        <mxCell id="minio" value="MinIO Storage" style="shape=rectangle;whiteSpace=wrap;rounded=1;" vertex="1" parent="1">
          <mxGeometry x="540" y="260" width="120" height="50" as="geometry"/>
        </mxCell>
        <mxCell id="line1" style="edgeStyle=orthogonalEdgeStyle;rounded=0;" edge="1" parent="1" source="user" target="gateway">
          <mxGeometry relative="1" as="geometry"/>
        </mxCell>
        <mxCell id="line2" style="edgeStyle=orthogonalEdgeStyle;rounded=0;" edge="1" parent="1" source="gateway" target="cms">
          <mxGeometry relative="1" as="geometry"/>
        </mxCell>
        <mxCell id="line3" style="edgeStyle=orthogonalEdgeStyle;rounded=0;" edge="1" parent="1" source="gateway" target="content">
          <mxGeometry relative="1" as="geometry"/>
        </mxCell>
        <mxCell id="line4" style="edgeStyle=orthogonalEdgeStyle;rounded=0;" edge="1" parent="1" source="gateway" target="oauth">
          <mxGeometry relative="1" as="geometry"/>
        </mxCell>
        <mxCell id="line5" style="edgeStyle=orthogonalEdgeStyle;rounded=0;" edge="1" parent="1" source="cms" target="cmsdb">
          <mxGeometry relative="1" as="geometry"/>
        </mxCell>
        <mxCell id="line6" style="edgeStyle=orthogonalEdgeStyle;rounded=0;" edge="1" parent="1" source="content" target="redis">
          <mxGeometry relative="1" as="geometry"/>
        </mxCell>
        <mxCell id="line7" style="edgeStyle=orthogonalEdgeStyle;rounded=0;" edge="1" parent="1" source="content" target="minio">
          <mxGeometry relative="1" as="geometry"/>
        </mxCell>
      </root>
    </mxGraphModel>
  </diagram>
</mxfile>
